<?xml version="1.0" standalone="no"?>
<!DOCTYPE svg PUBLIC "-//W3C//DTD SVG 20010904//EN"
 "http://www.w3.org/TR/2001/REC-SVG-20010904/DTD/svg10.dtd">
<svg version="1.0" xmlns="http://www.w3.org/2000/svg"
 width="700.000000pt" height="700.000000pt" viewBox="0 0 700.000000 700.000000"
 preserveAspectRatio="xMidYMid meet">
<metadata>
Created by potrace 1.11, written by Peter Selinger 2001-2013
</metadata>
<g transform="translate(0.000000,700.000000) scale(0.100000,-0.100000)"
fill="#000000" stroke="none">
<path d="M3240 6904 c-119 -11 -306 -37 -415 -60 -1346 -273 -2396 -1323
-2669 -2669 -51 -252 -60 -350 -60 -675 0 -325 9 -423 60 -675 273 -1346 1323
-2396 2669 -2669 252 -51 350 -60 675 -60 325 0 423 9 675 60 1346 273 2396
1323 2669 2669 51 252 60 350 60 675 0 325 -9 423 -60 675 -273 1346 -1324
2397 -2669 2669 -225 46 -346 58 -625 61 -146 1 -285 1 -310 -1z m495 -98
c361 -56 687 -219 939 -471 416 -416 581 -1028 431 -1594 -157 -590 -621
-1046 -1210 -1190 -128 -31 -198 -40 -395 -51 -197 -11 -267 -20 -395 -51
-589 -144 -1053 -600 -1210 -1190 -150 -566 15 -1178 431 -1594 248 -249 569
-411 929 -471 l80 -13 -80 5 c-117 8 -344 41 -470 70 -848 191 -1579 691
-2050 1404 -283 430 -452 879 -532 1415 -25 172 -25 678 0 850 80 536 249 985
532 1415 554 838 1472 1382 2490 1473 110 10 428 5 510 -7z m-114 -4550 c76
-23 130 -55 186 -112 139 -139 167 -359 68 -528 -63 -107 -181 -187 -308 -208
-171 -28 -354 58 -442 208 -142 241 -19 554 249 639 56 18 191 18 247 1z"/>
<path d="M3410 5589 c-109 -21 -227 -107 -285 -205 -99 -169 -71 -389 68 -528
87 -87 181 -126 307 -126 126 0 220 39 307 126 139 139 167 359 68 528 -92
158 -281 241 -465 205z"/>
</g>
</svg>
